<svg width="1200" height="700" viewBox="0 0 1200 700" fill="none" xmlns="http://www.w3.org/2000/svg">
  <rect width="1200" height="700" fill="#09090B"/>
  <rect x="70" y="70" width="1060" height="560" rx="28" fill="#18181B"/>
  <rect x="120" y="120" width="250" height="20" rx="10" fill="#6366F1"/>
  <rect x="120" y="160" width="360" height="14" rx="7" fill="#3F3F46"/>
  <rect x="120" y="210" width="310" height="360" rx="18" fill="#27272A"/>
  <rect x="450" y="210" width="310" height="360" rx="18" fill="#27272A"/>
  <rect x="780" y="210" width="310" height="360" rx="18" fill="#27272A"/>
  <rect x="150" y="250" width="250" height="170" rx="12" fill="#4F46E5"/>
  <rect x="480" y="250" width="250" height="170" rx="12" fill="#4338CA"/>
  <rect x="810" y="250" width="250" height="170" rx="12" fill="#3730A3"/>
  <rect x="150" y="445" width="120" height="14" rx="7" fill="#A1A1AA"/>
  <rect x="480" y="445" width="120" height="14" rx="7" fill="#A1A1AA"/>
  <rect x="810" y="445" width="120" height="14" rx="7" fill="#A1A1AA"/>
</svg>
