<svg width="1200" height="700" viewBox="0 0 1200 700" fill="none" xmlns="http://www.w3.org/2000/svg">
  <rect width="1200" height="700" fill="#09090B"/>
  <rect x="80" y="80" width="1040" height="540" rx="24" fill="#18181B"/>
  <rect x="130" y="130" width="230" height="22" rx="11" fill="#6366F1"/>
  <rect x="130" y="170" width="180" height="14" rx="7" fill="#3F3F46"/>
  <rect x="130" y="220" width="360" height="350" rx="18" fill="#27272A"/>
  <rect x="520" y="220" width="550" height="160" rx="18" fill="#27272A"/>
  <rect x="520" y="410" width="550" height="160" rx="18" fill="#27272A"/>
  <rect x="160" y="260" width="300" height="40" rx="10" fill="#4F46E5"/>
  <rect x="160" y="320" width="260" height="20" rx="10" fill="#A1A1AA"/>
  <rect x="560" y="260" width="200" height="18" rx="9" fill="#818CF8"/>
  <rect x="560" y="292" width="420" height="14" rx="7" fill="#A1A1AA"/>
  <rect x="560" y="450" width="200" height="18" rx="9" fill="#818CF8"/>
  <rect x="560" y="482" width="420" height="14" rx="7" fill="#A1A1AA"/>
</svg>
